<svg width="10" height="13" viewBox="0 0 10 13" xmlns="http://www.w3.org/2000/svg">
    <path d="M9.44114 6.39482C9.3018 6.23853 9.10021 6.14967 8.88894 6.15143H8.63228V4.4806C8.65104 3.46176 8.2661 2.47574 7.55899 1.73134C6.91523 1.00206 5.98182 0.583252 5.00019 0.583252C4.01856 0.583252 3.08515 1.00206 2.44139 1.73134C1.73963 2.47848 1.35794 3.46333 1.37588 4.4806V6.15143H1.11144C0.902431 6.14985 0.703305 6.23887 0.567016 6.39482C0.412787 6.55391 0.32889 6.76665 0.333691 6.98647V11.9974C0.32889 12.2173 0.412787 12.43 0.567016 12.5891C0.703224 12.7452 0.902328 12.8345 1.11144 12.8332H8.88894C9.10032 12.8347 9.30188 12.7456 9.44114 12.5891C9.59 12.4272 9.67065 12.2157 9.66669 11.9974V6.98647C9.67065 6.76821 9.59 6.55666 9.44114 6.39482ZM7.07678 6.15143H2.93138V4.4806C2.91885 3.8983 3.13632 3.33393 3.53802 2.90621C3.90878 2.49161 4.44287 2.25401 5.00408 2.25401C5.56529 2.25401 6.09938 2.49161 6.47014 2.90621C6.87184 3.33393 7.0893 3.8983 7.07678 4.4806V6.15143Z" />
</svg>
